<?xml version="1.0" encoding="UTF-8" standalone="no"?>
<!DOCTYPE svg PUBLIC "-//W3C//DTD SVG 1.1//EN" "http://www.w3.org/Graphics/SVG/1.1/DTD/svg11.dtd">
<svg width="100%" height="100%" viewBox="0 0 200 200" version="1.1" xmlns="http://www.w3.org/2000/svg" xmlns:xlink="http://www.w3.org/1999/xlink" xml:space="preserve" xmlns:serif="http://www.serif.com/" style="fill-rule:evenodd;clip-rule:evenodd;stroke-linejoin:round;stroke-miterlimit:2;">
    <rect x="0" y="0" width="200" height="200" style="fill:url(#_Linear1);"/>
    <g transform="matrix(0.175276,0,0,0.175276,-29.571,-106.791)">
        <path d="M592.278,1135.71C577.274,1132.63 566.886,1123.17 560.878,1107.11C556.414,1095.19 556.168,1078.89 560.259,1066.16C568.675,1039.94 600.611,1027.63 624.706,1041.32C628.831,1043.66 632.488,1045.58 632.842,1045.58C633.192,1045.58 633.698,1036.11 633.963,1024.53L634.45,1003.49L664.803,990.344L664.803,1134.03L637.051,1134.03L637.051,1121.24L632.282,1125.81C623.157,1134.55 606.59,1138.65 592.278,1135.71ZM623.379,1107.02C636.092,1100.52 636.839,1074.07 624.534,1066.01C608.138,1055.26 588.493,1066.06 588.493,1085.81C588.493,1106.55 604.839,1116.49 623.379,1107.02ZM831.553,1135.65C807.463,1130.86 793.388,1109.89 795.246,1081.56C796.908,1056.21 811.401,1039.56 834.807,1036.09C845.308,1034.53 858.396,1037.7 867.137,1043.91C871.109,1046.74 874.816,1049.05 875.376,1049.05C875.937,1049.05 876.394,1046.44 876.394,1043.25C876.394,1037.6 876.64,1037.41 886.364,1035.33C891.851,1034.15 897.706,1032.81 899.373,1032.33C902.214,1031.53 902.406,1034.74 902.406,1082.75L902.406,1134.03L876.394,1134.03L876.394,1123.39L871.291,1127.02C860.008,1135.06 844.969,1138.32 831.553,1135.65ZM860.982,1106.98C873.695,1100.59 874.447,1074.07 862.142,1066.01C845.746,1055.26 826.096,1066.06 826.096,1085.81C826.096,1106.49 842.354,1116.35 860.982,1106.98ZM444.54,1129.67C439.294,1127.19 432.087,1122.33 428.528,1118.87C419.098,1109.7 418.808,1112.96 428.134,1123.33L436.099,1132.2L430.45,1130.23C421.994,1127.28 410.421,1114.82 408.086,1106.16C403.42,1088.84 414.875,1061.47 435.14,1041.51C453.837,1023.09 468.035,1021.73 487.483,1036.52C495.477,1042.59 508.348,1060.13 514.213,1072.95C523.834,1093.96 522.418,1108.92 509.641,1121.2C505.565,1125.12 499.853,1129.16 496.937,1130.18L491.638,1132.02L498.422,1125.03C506.357,1116.85 505.801,1112.3 497.822,1120.1C483.904,1133.71 461.555,1137.72 444.54,1129.67ZM683.878,1134.03L683.878,985.378L698.189,979.341L712.496,973.304L713.43,1047.13L722.348,1041.59C730.194,1036.71 732.751,1036.04 743.562,1036.04C759.933,1036.04 769.436,1041.34 776.756,1054.56L781.869,1063.79L782.434,1098.91L782.995,1134.03L753.256,1134.03L753.247,1107.58C753.242,1093.04 752.43,1078.24 751.452,1074.71C748.129,1062.75 735.519,1057.72 723.916,1063.71C715.042,1068.3 713.366,1075.05 713.366,1106.11L713.366,1134.03L683.878,1134.03ZM921.486,1134.03L921.486,1030.21L931.461,1028.21C936.943,1027.11 943.186,1025.8 945.335,1025.3C949.101,1024.42 949.233,1024.82 949.233,1036.79L949.233,1049.18L952.94,1045.74C960.167,1039 968.672,1036.12 981.322,1036.12C994.896,1036.13 1000.82,1038.52 1009.65,1047.56C1018.51,1056.62 1020.34,1066.01 1020.34,1102.26L1020.34,1134.03L990.859,1134.03L990.82,1108.45C990.795,1094.38 990.058,1079.75 989.178,1075.93C986.194,1063.02 973.618,1057.46 961.524,1063.71C952.65,1068.3 950.974,1075.05 950.974,1106.11L950.974,1134.03L921.486,1134.03ZM1037.69,1078.53C1037.69,1048.01 1037.93,1023.03 1038.22,1023.03C1038.52,1023.03 1045.15,1020.7 1052.97,1017.85L1067.17,1012.66L1067.17,1134.03L1037.69,1134.03L1037.69,1078.53ZM444.933,1024.34C445.98,1021 456.88,1016.1 463.241,1016.1C472.494,1016.1 485.32,1022.72 482.164,1025.88C481.677,1026.36 477.307,1025.35 472.449,1023.62C464.023,1020.63 463.232,1020.62 455.149,1023.49C445.046,1027.08 444.043,1027.16 444.933,1024.34ZM436.772,1005.56C432.387,999.596 429.413,994.174 430.165,993.505C430.917,992.836 434.098,991.43 437.239,990.383C442.475,988.633 443.099,988.82 444.859,992.694C447.367,998.195 450.115,996.484 447.942,990.772C445.479,984.297 445.7,983.81 452.617,980.531C459.436,977.291 472.371,977.739 479.308,981.45C482.425,983.122 482.803,984.459 481.903,990.644C480.856,997.866 480.861,997.871 483.516,993.21C485.935,988.962 486.657,988.697 491.377,990.344C494.238,991.342 496.947,992.753 497.4,993.485C498.348,995.019 489.45,1008.96 484.902,1013.06C482.203,1015.49 480.758,1015.55 473.03,1013.53C464.667,1011.36 455.297,1011.96 447.681,1015.16C445.444,1016.1 442.859,1013.82 436.772,1005.56ZM1045.16,1004.03C1039.05,1001.43 1035.68,994.709 1036.28,986.376C1037.81,965.192 1071.43,967.08 1071.43,988.348C1071.43,993.485 1070.27,996.44 1066.96,999.749C1062.05,1004.66 1051.5,1006.73 1045.16,1004.03ZM548.602,984.847C530.235,982.94 505.388,978.678 493.968,975.477C482.42,972.242 487.134,972.213 505.241,975.408C513.353,976.839 535.594,978.461 554.674,979.012C594.84,980.172 615.07,977.876 641.028,969.209C660.319,962.769 693.253,946.874 713.366,934.303L728.105,925.09L721.601,923.458C718.027,922.563 715.096,921.369 715.096,920.803C715.096,919.609 742.79,909.55 743.414,910.518C743.64,910.877 743.414,917.799 742.908,925.911C742.013,940.178 741.895,940.503 739.363,935.94L736.743,931.231L725.489,939.131C701.862,955.714 653.805,975.89 623.123,982.104C606.693,985.432 567.958,986.858 548.602,984.847ZM480.635,971.554C481.889,971.052 483.383,971.111 483.958,971.687C484.539,972.267 483.511,972.675 481.682,972.601C479.667,972.517 479.254,972.104 480.635,971.554ZM552.621,910.324C552.469,910.164 552.344,909.767 552.344,909.441C552.344,908.777 554.197,903.758 555.277,901.494C555.866,900.259 557.245,897.127 560.634,889.329C560.898,888.72 561.608,887.145 562.211,885.827C563.399,883.226 567.176,874.384 568.114,872.003C568.433,871.192 569.805,868.041 571.164,864.999C572.521,861.958 574.418,857.646 575.378,855.415C576.34,853.185 577.418,850.696 577.776,849.886C578.133,849.075 578.804,847.499 579.268,846.384C579.732,845.268 580.25,844.198 580.42,844.006C580.59,843.814 580.728,843.381 580.728,843.043C580.728,842.708 581.107,841.87 581.57,841.182C582.032,840.495 582.63,839.187 582.897,838.274C583.165,837.362 583.721,835.868 584.133,834.957C584.544,834.045 585.372,832.219 585.971,830.901C588.685,824.931 589.823,822.305 590.123,821.317C590.277,820.81 590.978,819.152 591.68,817.631C592.384,816.111 593.209,814.286 593.515,813.577C593.822,812.866 594.457,811.456 594.927,810.443C595.398,809.429 595.898,808.185 596.038,807.678C596.179,807.172 596.594,806.176 596.961,805.467C597.981,803.49 599.353,800.426 600.675,797.173C601.334,795.551 602.258,793.493 602.729,792.601C603.198,791.71 603.583,790.829 603.583,790.644C603.583,790.459 603.974,789.447 604.451,788.395C604.927,787.343 605.859,785.155 606.52,783.533C607.181,781.911 608.056,779.838 608.465,778.926C608.874,778.013 609.5,776.603 609.855,775.792C610.864,773.493 613.224,768.432 613.347,768.305C613.558,768.086 620.065,772.671 622.199,774.545C623.344,775.551 626.765,778.236 629.203,780.046C630.419,780.947 631.498,781.779 631.599,781.893C631.7,782.007 633.359,783.272 635.286,784.705C637.211,786.137 639.128,787.639 639.546,788.043C639.964,788.447 641.292,789.506 642.497,790.395C647.656,794.202 648.071,794.757 647.099,796.532C646.907,796.884 646.475,797.836 646.14,798.647C644.775,801.956 643.113,805.761 640.906,810.627C640.492,811.54 639.63,813.613 638.99,815.235C638.351,816.858 637.646,818.599 637.426,819.105C637.206,819.612 636.811,820.525 636.549,821.133C636.289,821.741 635.754,822.985 635.36,823.898C634.965,824.81 633.194,829.04 631.422,833.298C629.652,837.555 627.909,841.619 627.551,842.329C626.202,845.001 624.963,847.826 624.963,848.235C624.963,848.63 623.9,851.255 621.83,855.968C621.341,857.083 620.417,859.24 619.779,860.76C619.14,862.281 618.15,864.52 617.579,865.736C617.008,866.953 616.178,868.944 615.736,870.16C615.293,871.376 614.554,873.201 614.093,874.216C612.717,877.244 612.665,877.619 613.558,878.097C614.552,878.629 629.901,878.281 639.34,877.513C642.889,877.223 647.51,876.902 649.61,876.796C651.711,876.69 653.545,876.532 653.686,876.445C653.828,876.358 656.339,876.198 659.267,876.092C662.195,875.985 665.751,875.729 667.171,875.522C668.591,875.315 672.571,874.89 676.018,874.578C679.465,874.264 683.695,873.85 685.418,873.658C687.142,873.466 691.869,873.052 695.923,872.739C699.979,872.425 704.004,872.007 704.868,871.809C705.733,871.612 706.977,871.447 707.633,871.443C708.29,871.439 710.152,871.196 711.775,870.902C713.397,870.61 715.523,870.365 716.501,870.358C717.478,870.351 719.635,870.104 721.293,869.809C722.952,869.515 725.801,869.091 727.626,868.868C729.45,868.647 732.022,868.23 733.34,867.943C734.658,867.658 736.979,867.237 738.5,867.008C740.02,866.781 743.421,866.197 746.057,865.713C754.826,864.101 759.672,863.272 762.145,862.962C763.491,862.795 765.316,862.466 766.199,862.232C769.895,861.256 770.906,861.023 775.916,860.002C776.726,859.836 778.386,859.453 779.602,859.151C780.818,858.847 783.307,858.242 785.132,857.805C786.956,857.369 788.781,856.87 789.186,856.697C789.592,856.524 791.251,856.112 792.873,855.78C794.494,855.449 796.817,854.844 798.033,854.436C801.53,853.264 806.745,851.851 808.347,851.642C809.154,851.537 810.149,851.238 810.558,850.978C811.6,850.315 818.944,847.858 819.885,847.858C820.311,847.858 821.619,847.361 822.791,846.752C823.964,846.145 825.104,845.647 825.324,845.647C825.545,845.647 826.408,845.317 827.241,844.914C828.073,844.513 829.53,843.92 830.479,843.598C831.427,843.276 833.606,842.361 835.322,841.565C837.038,840.768 838.731,840.118 839.083,840.118C839.436,840.118 839.883,839.963 840.075,839.773C840.267,839.585 842.166,838.533 844.295,837.436C846.424,836.339 849.162,834.857 850.378,834.143C851.594,833.429 853.394,832.402 854.378,831.86C855.363,831.318 857.759,829.678 859.706,828.215C861.651,826.752 863.523,825.391 863.866,825.188C864.607,824.75 869.679,820.249 870.253,819.519C870.473,819.24 871.541,818.162 872.628,817.122C876.776,813.161 882.08,804.239 883.003,799.672C883.2,798.702 883.524,797.247 883.725,796.436C884.277,794.202 884.178,788.571 883.544,786.099C880.634,774.763 876.108,767.249 866.229,757.353C860.188,751.302 857.945,749.248 855.169,747.228C853.953,746.342 852.593,745.233 852.146,744.762C851.7,744.291 851.2,743.907 851.037,743.907C850.873,743.907 850.325,743.522 849.821,743.054C849.315,742.586 847.957,741.598 846.803,740.86C845.648,740.121 843.491,738.633 842.012,737.555C840.531,736.477 838.697,735.27 837.937,734.874C837.176,734.479 836.555,734.026 836.555,733.87C836.555,733.712 836.378,733.584 836.162,733.584C835.946,733.584 835.241,733.191 834.594,732.709C833.503,731.896 831.298,730.592 828.609,729.172C827.99,728.844 826.996,728.233 826.398,727.812C825.8,727.39 824.897,726.92 824.39,726.767C823.883,726.614 822.555,725.959 821.441,725.313C820.326,724.666 817.672,723.262 815.543,722.195C813.414,721.126 811.411,720.017 811.09,719.73C810.77,719.443 810.291,719.208 810.026,719.208C809.761,719.208 806.196,717.55 802.106,715.522C798.015,713.494 794.493,711.836 794.277,711.836C794.062,711.836 792.912,711.407 791.72,710.883C790.529,710.359 789.016,709.695 788.357,709.408C787.698,709.122 786.595,708.637 785.905,708.333C785.215,708.03 784.469,707.78 784.246,707.78C784.023,707.78 783.842,707.655 783.842,707.502C783.842,707.348 783.137,707.004 782.274,706.735C781.413,706.468 780.21,706.022 779.602,705.746C778.993,705.469 777.501,704.923 776.285,704.53C775.068,704.137 773.326,703.478 772.414,703.063C771.502,702.648 770.092,702.036 769.281,701.702C766.592,700.597 765.971,700.322 764.984,699.811C764.447,699.531 763.657,699.302 763.229,699.302C762.801,699.302 762.163,699.16 761.811,698.988C761.458,698.815 760.506,698.382 759.696,698.025C758.885,697.67 757.968,697.252 757.656,697.097C757.345,696.942 756.516,696.693 755.814,696.542C755.11,696.392 754.369,696.148 754.167,696.003C753.964,695.857 752.803,695.449 751.587,695.095C750.369,694.742 749.043,694.32 748.638,694.157C748.232,693.994 747.154,693.572 746.241,693.22C745.329,692.867 744.25,692.445 743.845,692.281C743.439,692.116 742.195,691.714 741.081,691.383C739.966,691.055 738.799,690.649 738.488,690.482C738.177,690.316 737.391,690.064 736.741,689.92C736.091,689.778 735.465,689.508 735.349,689.321C735.233,689.133 734.786,688.981 734.356,688.981C733.924,688.981 731.653,688.338 729.308,687.551C726.963,686.763 724.05,685.83 722.834,685.476C721.617,685.121 720.464,684.686 720.271,684.511C720.079,684.334 719.497,684.189 718.976,684.189C718.456,684.189 717.121,683.846 716.009,683.428C713.807,682.6 711.872,681.985 708.457,681.023C703.476,679.62 702.53,679.328 701.92,679.002C701.567,678.814 700.986,678.66 700.63,678.662C699.936,678.663 696.717,677.68 695.653,677.14C695.3,676.962 694.697,676.816 694.313,676.816C693.658,676.816 690.58,675.98 688.92,675.35C688.019,675.009 685.379,674.3 683.391,673.865C682.58,673.688 681.003,673.269 679.889,672.933C678.774,672.597 677.28,672.183 676.571,672.013C675.862,671.843 674.534,671.524 673.622,671.304C672.709,671.085 671.631,670.764 671.225,670.592C670.82,670.419 669.742,670.081 668.831,669.837C667.228,669.411 666.288,669.195 662.419,668.36C661.426,668.147 660.431,667.825 660.206,667.645C659.982,667.466 659.219,667.225 658.508,667.11C657.144,666.889 653.541,666.02 652.611,665.687C651.556,665.309 648.732,664.596 647.081,664.289C646.168,664.121 644.427,663.707 643.21,663.372C641.082,662.784 640.214,662.58 636.222,661.72C635.216,661.504 634.23,661.163 634.029,660.962C633.827,660.762 633.089,660.597 632.386,660.597C631.254,660.597 629.593,660.214 625.859,659.094C625.236,658.907 624.272,658.754 623.715,658.754C623.159,658.754 622.372,658.576 621.966,658.358C621.284,657.993 620.129,657.731 615.748,656.943C614.082,656.643 611.357,656.005 609.296,655.434C608.689,655.264 607.321,655.014 606.256,654.878C605.192,654.741 604.228,654.479 604.115,654.296C604.001,654.112 603.265,653.961 602.479,653.961C601.694,653.961 600.597,653.788 600.041,653.578C599.487,653.366 598.273,653.107 597.345,653C596.417,652.893 595.501,652.65 595.307,652.462C595.115,652.273 594.198,652.118 593.27,652.118C592.342,652.118 591.255,651.891 590.856,651.614C590.456,651.336 589.134,651.014 587.917,650.899C586.7,650.785 584.461,650.425 582.941,650.102C581.419,649.777 579.204,649.368 578.018,649.192C576.831,649.017 575.678,648.691 575.456,648.468C575.233,648.245 574.11,648.064 572.958,648.064C571.548,648.064 570.716,647.883 570.407,647.511C570.007,647.03 570.24,646.957 572.2,646.957C573.437,646.957 575.158,647.115 576.023,647.307C577.812,647.704 582.271,648.363 586.074,648.792C593.108,649.585 595.583,649.931 595.97,650.177C596.204,650.325 597.556,650.569 598.975,650.719C600.395,650.87 602.966,651.258 604.689,651.582C606.412,651.905 608.983,652.305 610.403,652.47C611.822,652.636 613.646,652.952 614.458,653.174C615.269,653.394 616.473,653.579 617.135,653.584C617.797,653.589 618.627,653.741 618.978,653.922C619.33,654.103 620.863,654.456 622.383,654.707C623.904,654.956 625.978,655.31 626.99,655.494C628.005,655.678 629.888,655.984 631.177,656.175C632.467,656.366 634.043,656.682 634.68,656.879C635.316,657.074 637.497,657.51 639.524,657.848C641.551,658.185 643.499,658.61 643.85,658.791C644.202,658.974 644.98,659.122 645.578,659.122C646.175,659.122 647.131,659.3 647.699,659.516C648.269,659.732 649.732,660.05 650.95,660.22C652.167,660.391 654.158,660.798 655.375,661.125C656.591,661.453 658.416,661.873 659.43,662.06C663.585,662.824 665.366,663.219 666.065,663.537C666.47,663.722 667.467,663.951 668.277,664.047C670.174,664.271 673.48,665.124 673.838,665.482C673.99,665.634 674.791,665.763 675.618,665.77C676.447,665.777 677.538,666.021 678.045,666.311C678.552,666.601 679.498,666.843 680.148,666.85C680.797,666.857 681.71,667.01 682.175,667.188C682.642,667.367 684.35,667.797 685.971,668.144C687.593,668.491 690.164,669.103 691.685,669.504C693.205,669.905 695.196,670.378 696.109,670.552C698.795,671.067 701.556,671.82 701.853,672.116C702.005,672.268 702.543,672.392 703.05,672.392C703.555,672.392 704.896,672.657 706.028,672.98C707.161,673.303 708.669,673.7 709.379,673.863C710.088,674.028 711.416,674.354 712.327,674.588C713.24,674.822 714.567,675.156 715.277,675.329C717.712,675.921 723.572,677.508 725.598,678.123C726.714,678.461 728.206,678.822 728.916,678.926C729.626,679.031 730.389,679.262 730.615,679.442C730.839,679.62 731.75,679.923 732.642,680.112C735.548,680.729 737.564,681.248 738.316,681.569C738.722,681.744 740.546,682.332 742.371,682.876C747.942,684.54 749.344,684.976 750.112,685.289C750.517,685.454 751.845,685.881 753.061,686.238C754.277,686.596 755.521,687.004 755.825,687.148C756.941,687.672 758.988,688.334 760.065,688.516C760.674,688.621 761.337,688.831 761.539,688.984C761.742,689.139 762.483,689.387 763.186,689.539C763.889,689.689 764.718,689.943 765.029,690.103C765.34,690.263 766.589,690.67 767.806,691.006C769.022,691.343 770.35,691.746 770.755,691.903C771.16,692.059 772.902,692.636 774.625,693.182C776.349,693.73 778.34,694.405 779.049,694.684C780.552,695.276 784.849,696.774 786.975,697.447C787.786,697.703 788.946,698.127 789.555,698.388C790.163,698.65 791.49,699.146 792.503,699.491C794.845,700.287 795.499,700.535 797.217,701.278C797.983,701.611 798.865,701.883 799.174,701.883C799.485,701.883 800.598,702.278 801.65,702.76C802.702,703.244 803.894,703.729 804.3,703.837C805.364,704.124 809.272,705.543 810.567,706.111C812.428,706.929 813.413,707.32 816.096,708.311C817.515,708.835 819.146,709.511 819.72,709.813C820.294,710.114 821.072,710.361 821.449,710.361C821.827,710.361 822.225,710.508 822.337,710.689C822.448,710.869 822.969,711.124 823.494,711.256C824.394,711.482 826.419,712.364 831.578,714.78C832.794,715.35 834.702,716.226 835.817,716.728C843.45,720.165 858.651,727.735 861.436,729.488C862.45,730.125 863.736,730.847 864.294,731.09C864.851,731.334 865.308,731.646 865.308,731.783C865.308,731.918 865.693,732.127 866.163,732.245C866.634,732.362 868.749,733.593 870.863,734.977C874.835,737.579 879.984,740.864 881.102,741.51C883.529,742.913 890.323,747.799 891.111,748.709C891.212,748.826 891.917,749.3 892.678,749.761C893.439,750.224 894.268,750.878 894.521,751.217C894.775,751.556 895.977,752.556 897.193,753.442C899.714,755.277 911.421,767.002 912.692,768.965C913.154,769.679 913.926,770.678 914.407,771.185C916.557,773.453 918.249,776.26 921.411,782.796C922.391,784.823 923.369,786.79 923.584,787.168C923.8,787.545 924.119,788.624 924.293,789.564C924.469,790.505 924.947,792.601 925.358,794.223C926.205,797.564 926.393,804.204 925.746,807.887C924.43,815.374 921.406,821.847 914.979,830.936C913.277,833.344 906.454,840.249 903.776,842.276C902.532,843.218 899.768,845.356 897.634,847.029C895.499,848.701 893.655,850.071 893.535,850.071C893.359,850.071 887.367,853.631 884.844,855.233C884.54,855.426 882.301,856.579 879.869,857.794C877.435,859.008 874.533,860.53 873.417,861.175C872.302,861.82 870.573,862.664 869.574,863.052C868.575,863.439 866.668,864.259 865.334,864.877C864.001,865.494 862.414,866.207 861.805,866.462C861.197,866.719 859.525,867.447 858.09,868.083C856.655,868.719 855.129,869.239 854.701,869.239C854.274,869.239 853.833,869.385 853.723,869.564C853.612,869.742 853.146,869.977 852.687,870.086C852.228,870.195 850.442,870.806 848.719,871.444C846.995,872.084 845.254,872.691 844.848,872.796C844.443,872.9 843.78,873.119 843.374,873.281C840.215,874.539 835.191,876.261 833.605,876.629C832.896,876.793 830.158,877.673 827.524,878.586C821.572,880.645 810.391,883.886 808.17,884.195C807.258,884.321 805.675,884.725 804.654,885.091C803.632,885.459 801.973,885.871 800.967,886.008C799.961,886.146 797.812,886.639 796.19,887.103C792.425,888.181 790.466,888.661 787.712,889.172C786.496,889.399 784.92,889.724 784.209,889.894C779.174,891.099 769.438,893.127 765.595,893.771C760.15,894.685 758.51,894.986 757.072,895.34C756.285,895.533 754.397,895.891 752.877,896.137C751.356,896.382 749.297,896.738 748.3,896.928C747.306,897.117 744.92,897.435 743.001,897.634C741.082,897.834 738.549,898.246 737.372,898.55C736.195,898.855 733.437,899.26 731.244,899.45C729.051,899.641 726.013,900.052 724.493,900.364C722.971,900.677 720.069,901.027 718.041,901.141C716.014,901.257 713.443,901.579 712.327,901.859C711.213,902.137 708.393,902.551 706.062,902.777C703.73,903.004 699.665,903.432 697.029,903.728C687.673,904.783 681.478,905.385 676.202,905.75C673.262,905.955 668.701,906.377 666.065,906.69C663.429,907.002 657.873,907.413 653.717,907.603C649.561,907.792 643.422,908.116 640.077,908.32C632.402,908.793 613.49,909.382 593.262,909.782C584.645,909.952 572.039,910.208 565.247,910.353C558.455,910.497 552.773,910.484 552.621,910.324ZM621.646,871.121C621.646,870.689 621.801,870.047 621.989,869.694C622.178,869.342 622.864,867.727 623.512,866.106C624.161,864.484 625.065,862.327 625.522,861.313C625.979,860.3 626.885,858.225 627.534,856.705C629.044,853.175 629.633,851.878 631.931,847.027C632.965,844.845 633.81,842.921 633.81,842.749C633.81,842.579 634.225,841.659 634.733,840.706C635.238,839.753 635.654,838.827 635.654,838.649C635.654,838.32 636.722,835.923 639.518,829.98C640.377,828.155 641.362,825.999 641.706,825.188C642.051,824.377 642.572,823.244 642.865,822.67C643.156,822.096 643.394,821.388 643.394,821.099C643.394,820.807 643.545,820.282 643.727,819.93C645.004,817.478 649.031,808.823 650.016,806.414C650.674,804.806 651.347,803.23 651.51,802.911C651.674,802.594 652.222,801.421 652.729,800.306C655.432,794.365 655.15,794.776 656.502,794.776C657.186,794.776 658.291,794.548 658.957,794.268C660.748,793.515 662.551,792.993 664.322,792.714C665.189,792.579 665.987,792.324 666.096,792.147C666.204,791.972 666.709,791.827 667.217,791.827C667.726,791.827 668.46,791.657 668.849,791.448C669.239,791.24 670.346,790.9 671.313,790.693C673.563,790.211 675.195,789.79 677.492,789.099C681.983,787.75 683.507,787.348 685.234,787.056C686.247,786.885 687.989,786.468 689.105,786.131C690.219,785.793 691.795,785.383 692.606,785.22C693.417,785.059 695.242,784.561 696.662,784.115C701.885,782.475 702.601,782.292 704.645,782.063L706.731,781.83L706.424,783.187C706.257,783.934 705.939,784.724 705.722,784.943C705.503,785.16 705.323,785.655 705.323,786.039C705.323,786.424 704.66,788.117 703.849,789.8C703.038,791.483 702.375,793.125 702.375,793.45C702.375,793.775 702.21,794.039 702.006,794.039C701.804,794.039 701.638,794.266 701.638,794.545C701.638,795.086 700.397,798.089 697.896,803.604C697.488,804.505 696.77,806.247 696.302,807.474C695.833,808.702 694.715,811.282 693.818,813.207C692.921,815.134 691.965,817.29 691.693,818C691.423,818.709 690.835,820.119 690.389,821.133C689.942,822.146 688.783,824.884 687.813,827.215C686.844,829.547 685.907,831.612 685.733,831.804C685.56,831.998 685.418,832.366 685.418,832.623C685.418,832.883 685.02,833.969 684.534,835.038C684.047,836.108 683.131,838.311 682.497,839.932C681.863,841.555 681.027,843.545 680.64,844.356C680.252,845.168 678.994,848.154 677.843,850.992C676.693,853.83 675.106,857.537 674.318,859.229C673.53,860.921 672.885,862.472 672.885,862.675C672.885,863.581 669.771,869.302 669.074,869.674C668.344,870.064 665.765,870.21 643.947,871.089C621.388,871.999 621.646,871.999 621.646,871.121ZM678.891,867.855C678.451,867.56 678.927,865.561 679.858,863.797C680.043,863.444 680.864,861.498 681.682,859.47C682.498,857.442 684.004,853.959 685.027,851.729C686.049,849.498 686.888,847.475 686.89,847.233C686.891,846.99 687.464,845.58 688.163,844.099C688.861,842.618 690.205,839.5 691.149,837.168C692.092,834.837 693.169,832.349 693.542,831.638C694.711,829.416 696.476,825.341 696.476,824.867C696.476,824.618 696.614,824.256 696.783,824.063C696.95,823.871 697.787,821.948 698.643,819.792C699.498,817.635 701.02,814.326 702.024,812.437C703.027,810.549 703.849,808.82 703.849,808.594C703.849,808.082 705.236,804.596 706.781,801.227C707.431,799.809 708.185,798.149 708.455,797.54C708.724,796.933 709.457,795.311 710.084,793.938C710.71,792.564 711.222,791.334 711.222,791.203C711.222,790.976 713.181,786.39 713.801,785.166C713.963,784.848 714.634,783.272 715.293,781.665C716.788,778.019 717.035,777.736 719.218,777.148C720.193,776.886 721.797,776.432 722.783,776.139C723.77,775.846 724.975,775.608 725.461,775.608C725.947,775.608 726.634,775.462 726.985,775.282C727.587,774.977 729.251,774.501 732.234,773.78C736.231,772.815 740.013,771.851 741.634,771.383C744.018,770.694 745.308,770.425 747.347,770.19C748.26,770.085 749.178,769.86 749.388,769.69C749.765,769.386 751.588,768.872 754.557,768.237C755.379,768.06 756.458,767.749 756.952,767.547C758.067,767.09 765.093,765.415 766.996,765.152C768.481,764.946 769.168,765.577 768.451,766.49C768.253,766.74 767.978,767.42 767.839,768C767.701,768.579 767.283,769.74 766.913,770.58C766.542,771.419 765.943,772.935 765.581,773.949C765.22,774.963 764.827,775.876 764.707,775.976C764.381,776.252 763.198,778.569 763.198,778.93C763.198,779.101 762.701,780.317 762.092,781.631C761.484,782.946 760.986,784.143 760.986,784.291C760.986,784.44 760.44,785.74 759.771,787.18C759.102,788.621 758.369,790.297 758.142,790.906C757.915,791.513 756.951,793.836 756.001,796.066C755.051,798.297 754.052,800.718 753.78,801.448C753.508,802.179 752.532,804.317 751.606,806.201C750.683,808.086 749.928,809.839 749.928,810.098C749.928,810.355 749.692,811.037 749.402,811.611C749.114,812.185 748.426,813.816 747.871,815.235C747.318,816.654 746.461,818.727 745.969,819.843C744.802,822.493 744.65,822.847 743.285,826.11C742.649,827.63 741.809,829.578 741.419,830.439C741.029,831.3 740.112,833.457 739.382,835.232C738.652,837.007 737.761,839.039 737.4,839.748C737.039,840.458 736.455,841.785 736.103,842.698C735.066,845.384 733.595,848.813 730.964,854.678C730.509,855.691 729.862,857.226 729.527,858.087C728.177,861.551 727.664,862.65 727.285,862.893C727.068,863.032 725.146,863.262 723.017,863.403C720.889,863.543 717.903,863.839 716.383,864.059C710.201,864.956 707.932,865.214 704.677,865.388C702.8,865.49 700.84,865.734 700.322,865.931C699.802,866.128 698.051,866.289 696.429,866.289C694.806,866.289 693.191,866.444 692.837,866.634C692.286,866.929 688.595,867.361 681.179,867.996C680.166,868.084 679.135,868.02 678.891,867.855ZM743.937,859.443C743.307,858.805 743.917,857.024 747.34,849.518C747.988,848.098 748.913,845.891 749.398,844.612C749.882,843.335 750.503,841.841 750.779,841.295C751.4,840.062 753.22,836.133 753.631,835.141C753.798,834.736 754.417,833.326 755.005,832.008C755.593,830.69 756.378,828.782 756.75,827.768C757.122,826.755 757.56,825.748 757.721,825.532C758.001,825.158 759.439,821.877 763.572,812.194C764.589,809.812 765.576,807.531 765.767,807.126C765.958,806.719 766.553,805.309 767.091,803.993C768.047,801.644 769.17,799.193 769.791,798.094C770.479,796.876 772.045,793.26 772.045,792.89C772.045,792.087 774.703,786.924 775.555,786.073C776.04,785.588 776.863,785.192 777.385,785.192C777.908,785.192 779.367,784.837 780.627,784.404C781.888,783.97 783.5,783.481 784.209,783.317C784.92,783.153 786.412,782.744 787.527,782.411C788.643,782.077 790.135,781.662 790.845,781.489C791.555,781.316 793.048,780.905 794.163,780.575C795.277,780.244 797.186,779.732 798.402,779.438C802.227,778.512 803.135,778.276 805.406,777.627C806.622,777.279 808.032,776.915 808.539,776.82C809.045,776.724 809.983,776.412 810.622,776.127C811.26,775.841 812.078,775.608 812.439,775.608C813.183,775.608 815.15,775.024 816.938,774.274C817.604,773.994 818.55,773.765 819.04,773.765C819.531,773.765 820.312,773.61 820.779,773.421C821.244,773.231 822.587,772.793 823.762,772.443C826.572,771.61 826.862,771.918 825.906,774.726C824.97,777.478 819.354,790.636 818.65,791.722C818.36,792.171 818.123,792.84 818.123,793.206C818.123,793.574 817.902,794.202 817.633,794.602C817.363,795.002 816.87,796.027 816.537,796.88C816.202,797.733 815.602,799.143 815.2,800.013C814.799,800.884 814.118,802.509 813.686,803.623C813.254,804.738 812.358,806.812 811.694,808.231C811.031,809.65 810.112,811.724 809.655,812.84C808.913,814.651 808.272,816.158 806.993,819.105C806.773,819.612 806.38,820.525 806.121,821.133C805.862,821.741 805.136,823.372 804.507,824.756C803.88,826.141 801.866,830.853 800.032,835.227C798.199,839.602 796.377,843.812 795.984,844.584C795.591,845.355 795.263,846.283 795.256,846.646C795.229,848.143 793.881,849.025 790.2,849.954C788.223,850.454 785.777,851.002 784.763,851.173C783.748,851.343 781.759,851.755 780.339,852.088C778.919,852.423 776.93,852.843 775.916,853.024C771.741,853.77 770.125,854.101 768.995,854.444C765.604,855.472 763.601,855.968 762.84,855.968C762.375,855.968 761.394,856.122 760.661,856.308C758.386,856.891 755.353,857.529 753.429,857.831C752.416,857.991 750.509,858.388 749.191,858.714C745.808,859.552 744.257,859.766 743.937,859.443ZM779.187,776.54C778.855,775.678 779.595,773.559 782.021,768.419C784.308,763.571 785.135,761.728 785.431,760.818C785.632,760.196 788.137,758.87 789.739,758.536C790.246,758.43 791.573,758.067 792.689,757.73C793.803,757.393 795.297,756.974 796.006,756.797C796.715,756.621 798.209,756.203 799.323,755.87C800.438,755.536 801.931,755.142 802.641,754.994C803.351,754.846 804.293,754.53 804.736,754.292C805.179,754.054 806.1,753.859 806.783,753.859C807.465,753.859 808.18,753.721 808.374,753.552C808.789,753.188 811.45,752.38 813.516,751.99C814.327,751.837 815.903,751.437 817.017,751.101C820.78,749.967 821.619,749.743 823.716,749.312C824.865,749.076 825.93,748.758 826.08,748.606C826.232,748.454 826.867,748.325 827.493,748.318C828.117,748.311 828.952,748.063 829.345,747.765C829.739,747.468 830.664,747.224 831.402,747.224C832.141,747.224 832.864,747.106 833.009,746.961C833.57,746.399 836.521,745.863 836.91,746.252C837.512,746.855 837.519,746.83 835.646,751.094C835.379,751.702 834.881,752.864 834.543,753.675C834.203,754.485 833.783,755.48 833.612,755.886C833.439,756.293 832.674,758.173 831.911,760.068C830.41,763.791 830.367,763.83 826.787,764.752C825.772,765.014 823.947,765.506 822.731,765.847C820.525,766.464 814.674,767.998 812.226,768.599C810.473,769.029 805.122,770.406 802.641,771.065C801.526,771.36 800.233,771.757 799.766,771.947C799.301,772.135 798.494,772.29 797.973,772.29C797.452,772.29 796.258,772.531 795.318,772.825C794.379,773.119 792.863,773.553 791.95,773.79C791.039,774.026 789.558,774.449 788.659,774.729C787.762,775.009 786.592,775.239 786.061,775.239C785.529,775.239 784.931,775.402 784.732,775.603C784.531,775.802 783.545,776.122 782.538,776.315C781.532,776.505 780.418,776.774 780.066,776.911C779.642,777.074 779.343,776.949 779.187,776.54ZM566.351,646.59C566.351,646.386 566.767,646.22 567.274,646.22C567.781,646.22 568.195,646.386 568.195,646.59C568.195,646.792 567.781,646.957 567.274,646.957C566.767,646.957 566.351,646.792 566.351,646.59Z" style="fill:white;"/>
    </g>
    <g id="document-spreadsheet-calc" serif:id="document spreadsheet calc" transform="matrix(0.137637,0,0,0.137637,46.6656,92.8634)">
        <path d="M600,200.001L600,225.001L625,225.001L625,200.001L600,200.001ZM523.907,77.538L520.37,52.789L523.907,77.538ZM163.986,128.955L160.451,104.206L163.986,128.955ZM169.036,225.001L600,225.001L600,175.001L169.036,175.001L169.036,225.001ZM625,200.001L625,143.535L575,143.535L575,200.001L625,200.001ZM520.37,52.789L160.451,104.206L167.522,153.704L527.44,102.287L520.37,52.789ZM160.451,104.206C130.546,108.478 108.333,134.09 108.333,164.298L158.333,164.298C158.333,158.972 162.25,154.457 167.522,153.704L160.451,104.206ZM625,143.535C625,87.751 575.593,44.9 520.37,52.789L527.44,102.287C552.543,98.701 575,118.178 575,143.535L625,143.535ZM169.036,175.001C163.125,175.001 158.333,170.209 158.333,164.298L108.333,164.298C108.333,197.823 135.511,225.001 169.036,225.001L169.036,175.001Z" style="fill:white;fill-rule:nonzero;stroke:white;stroke-width:7.27px;"/>
        <path d="M266.667,400L533.333,400" style="fill:none;fill-rule:nonzero;stroke:white;stroke-width:50px;stroke-linecap:round;stroke-linejoin:miter;stroke-miterlimit:4;"/>
        <path d="M266.667,516.667L450,516.667" style="fill:none;fill-rule:nonzero;stroke:white;stroke-width:50px;stroke-linecap:round;stroke-linejoin:miter;stroke-miterlimit:4;"/>
        <path d="M133.333,200L133.333,633.333C133.333,688.563 178.105,733.333 233.333,733.333L566.667,733.333C621.897,733.333 666.667,688.563 666.667,633.333L666.667,466.667M133.333,200L133.333,166.667M133.333,200L566.667,200C621.897,200 666.667,244.772 666.667,300L666.667,333.333" style="fill:none;fill-rule:nonzero;stroke:white;stroke-width:50px;stroke-linecap:round;stroke-linejoin:miter;stroke-miterlimit:4;"/>
    </g>
    <defs>
        <linearGradient id="_Linear1" x1="0" y1="0" x2="1" y2="0" gradientUnits="userSpaceOnUse" gradientTransform="matrix(1.22465e-14,200,-200,1.22465e-14,100,0)"><stop offset="0" style="stop-color:rgb(13,11,46);stop-opacity:1"/><stop offset="0.44" style="stop-color:rgb(26,21,88);stop-opacity:1"/><stop offset="1" style="stop-color:rgb(55,44,185);stop-opacity:1"/></linearGradient>
    </defs>
</svg>
